<svg width="20" height="22" viewBox="0 0 20 22" fill="none" xmlns="http://www.w3.org/2000/svg">
<path d="M10 0.55542C8.02219 0.55542 6.08879 1.16824 4.4443 2.31639C2.79981 3.46454 1.51809 5.09645 0.761209 7.00576C0.00433286 8.91506 -0.1937 11.016 0.192152 13.0429C0.578004 15.0698 1.53041 16.9317 2.92894 18.393C4.32746 19.8543 6.10929 20.8495 8.0491 21.2526C9.98891 21.6558 11.9996 21.4489 13.8268 20.658C15.6541 19.8672 17.2159 18.5279 18.3147 16.8096C19.4135 15.0912 20 13.071 20 11.0044C19.9972 8.23407 18.9427 5.57802 17.068 3.61909C15.1932 1.66016 12.6513 0.558345 10 0.55542ZM10 19.8459C8.32647 19.8459 6.69052 19.3273 5.29902 18.3558C3.90753 17.3843 2.823 16.0035 2.18256 14.3879C1.54213 12.7723 1.37456 10.9946 1.70105 9.27953C2.02754 7.56446 2.83343 5.98906 4.01679 4.75256C5.20016 3.51606 6.70786 2.67399 8.34924 2.33284C9.99062 1.99169 11.6919 2.16678 13.2381 2.83597C14.7842 3.50516 16.1057 4.63839 17.0355 6.09236C17.9653 7.54634 18.4615 9.25574 18.4615 11.0044C18.459 13.3485 17.5667 15.5958 15.9804 17.2533C14.3941 18.9109 12.2434 19.8432 10 19.8459ZM6.92308 11.0044C6.92308 11.6792 7.12627 12.3369 7.50387 12.8843C7.88147 13.4317 8.41434 13.8411 9.02699 14.0545C9.63965 14.2679 10.301 14.2744 10.9174 14.0732C11.5339 13.872 12.0741 13.4733 12.4615 12.9335C12.5841 12.7629 12.7664 12.6502 12.9685 12.6202C13.1705 12.5901 13.3757 12.6452 13.5389 12.7732C13.7022 12.9012 13.81 13.0918 13.8388 13.3029C13.8675 13.514 13.8148 13.7284 13.6923 13.899C13.111 14.7085 12.3006 15.3064 11.376 15.6079C10.4514 15.9095 9.45948 15.8995 8.54064 15.5793C7.6218 15.2592 6.82264 14.6451 6.25635 13.824C5.69006 13.0029 5.38534 12.0165 5.38534 11.0044C5.38534 9.99234 5.69006 9.00592 6.25635 8.18484C6.82264 7.36376 7.6218 6.74965 8.54064 6.42948C9.45948 6.10931 10.4514 6.09931 11.376 6.40089C12.3006 6.70246 13.111 7.30034 13.6923 8.10984C13.753 8.19429 13.7971 8.29039 13.8223 8.39266C13.8474 8.49494 13.853 8.60138 13.8388 8.70592C13.8245 8.81046 13.7907 8.91104 13.7393 9.00193C13.6878 9.09282 13.6198 9.17222 13.5389 9.23562C13.4581 9.29902 13.3662 9.34516 13.2683 9.37142C13.1704 9.39768 13.0685 9.40353 12.9685 9.38865C12.8684 9.37377 12.7722 9.33845 12.6852 9.28469C12.5982 9.23094 12.5222 9.15981 12.4615 9.07537C12.0741 8.53554 11.5339 8.13678 10.9174 7.93558C10.301 7.73438 9.63965 7.74094 9.02699 7.95433C8.41434 8.16771 7.88147 8.57711 7.50387 9.12453C7.12627 9.67194 6.92308 10.3296 6.92308 11.0044Z" fill="black" fill-opacity="0.97"/>
</svg>
